<?xml version="1.0" encoding="UTF-8" standalone="no"?>
<svg
   xmlns:dc="http://purl.org/dc/elements/1.1/"
   xmlns:cc="http://creativecommons.org/ns#"
   xmlns:rdf="http://www.w3.org/1999/02/22-rdf-syntax-ns#"
   xmlns:svg="http://www.w3.org/2000/svg"
   xmlns="http://www.w3.org/2000/svg"
   xmlns:sodipodi="http://sodipodi.sourceforge.net/DTD/sodipodi-0.dtd"
   xmlns:inkscape="http://www.inkscape.org/namespaces/inkscape"
   sodipodi:docname="logo.svg"
   inkscape:version="1.0 (4035a4fb49, 2020-05-01)"
   id="svg8"
   version="1.1"
   viewBox="0 0 158.75 25.400253"
   height="1.00001in"
   width="6.25in">
  <defs
     id="defs2" />
  <sodipodi:namedview
     inkscape:window-maximized="0"
     inkscape:window-y="0"
     inkscape:window-x="0"
     inkscape:window-height="768"
     inkscape:window-width="1366"
     units="in"
     showgrid="false"
     inkscape:document-rotation="0"
     inkscape:current-layer="layer1"
     inkscape:document-units="mm"
     inkscape:cy="108.4003"
     inkscape:cx="383.74574"
     inkscape:zoom="1.223591"
     inkscape:pageshadow="2"
     inkscape:pageopacity="0"
     borderopacity="1.0"
     bordercolor="#666666"
     pagecolor="#000000"
     id="base" />
  <metadata
     id="metadata5">
    <rdf:RDF>
      <cc:Work
         rdf:about="">
        <dc:format>image/svg+xml</dc:format>
        <dc:type
           rdf:resource="http://purl.org/dc/dcmitype/StillImage" />
        <dc:title></dc:title>
      </cc:Work>
    </rdf:RDF>
  </metadata>
  <g
     id="layer1"
     inkscape:groupmode="layer"
     inkscape:label="Layer 1">
    <path
       d="m 4.1641875,4.5757176 q 0.284477,-0.1778 0.640073,-0.1778 0.355596,0 0.444495,0.40893 0.01778,2.06246 0.07112,6.1695904 0,2.50696 -0.142239,4.24938 -0.03556,0.26669 -0.337816,0.48005 -0.284477,0.19558 -0.586733,0.19558 -0.497835,0 -0.497835,-0.51561 0.177798,-1.77798 0.177798,-4.4094 L 3.8263725,5.0024276 q 0.07112,-0.24892 0.337816,-0.42671 z"
       style="font-style:normal;font-variant:normal;font-weight:normal;font-stretch:normal;font-size:17.7798px;line-height:0;font-family:'Patrick Hand';-inkscape-font-specification:'Patrick Hand';fill:#f9f9f9;stroke-width:0.444495"
       id="path30" />
    <g
       transform="translate(-3.520941,0.04138875)"
       id="g278">
      <path
         id="path32"
         style="font-style:normal;font-variant:normal;font-weight:normal;font-stretch:normal;font-size:17.7798px;line-height:0;font-family:'Patrick Hand';-inkscape-font-specification:'Patrick Hand';fill:#f9f9f9;stroke-width:0.444495"
         d="m 17.299016,9.55176 q 1.386824,0.23113 2.542511,0.23113 1.155687,0 1.475723,-0.0178 -0.03556,-1.35126 -0.03556,-2.59585 0,-1.24458 0,-1.68908 0,-0.44449 0.03556,-0.55117 0.03556,-0.12446 0.231138,-0.23114 0.195578,-0.10668 0.568953,-0.10668 0.533394,0 0.533394,0.64007 v 6.29405 q 0,1.95578 -0.0889,4.30272 -0.01778,0.51561 -0.87121,0.51561 -0.426715,0 -0.426715,-0.51561 l 0.07112,-4.71165 q -0.568953,0.0356 -1.564622,0.0356 -0.977889,0 -2.471392,-0.21336 0,2.34693 0.213357,4.90723 0.01778,0.28447 -0.248917,0.44449 -0.266697,0.14224 -0.675633,0.14224 -0.391155,0 -0.426715,-0.40894 -0.231137,-2.52473 -0.231137,-4.97834 l 0.106679,-5.5473 q 0,-0.35559 0.266697,-0.51561 0.266697,-0.1778 0.568953,-0.1778 0.497835,0 0.497835,0.48005 z" />
      <path
         id="path34"
         style="font-style:normal;font-variant:normal;font-weight:normal;font-stretch:normal;font-size:17.7798px;line-height:0;font-family:'Patrick Hand';-inkscape-font-specification:'Patrick Hand';fill:#f9f9f9;stroke-width:0.444495"
         d="m 27.877969,4.64453 q 0.444495,0 0.746752,0.39116 0.302256,0.39115 0.782311,1.61796 1.120127,2.89811 2.186915,9.08548 0.01778,0.0711 0.01778,0.21335 0,0.12446 -0.177798,0.28448 -0.160018,0.14224 -0.480054,0.14224 -0.302257,0 -0.515615,-0.14224 -0.213357,-0.16002 -0.284476,-0.49783 -0.07112,-0.3556 -0.266697,-1.36905 -0.426716,-2.25803 -0.568954,-2.34693 -0.213358,-0.12446 -1.422384,-0.2667 -1.191247,-0.14224 -1.582402,-0.14224 -0.391156,0 -0.462275,0.0711 -0.320036,0.28448 -0.87121,4.32049 -0.07112,0.33782 -0.675633,0.33782 -0.604513,0 -0.604513,-0.51561 0,-1.28015 0.94233,-4.88945 0.942329,-3.6093 1.564622,-4.78277 0.782311,-1.51128 1.671301,-1.51128 z m -0.07112,1.97356 q -0.266697,0 -0.92455,1.5824 -0.657852,1.56462 -0.657852,1.938 0,0.0889 0.03556,0.12446 0.142239,0.14224 1.120128,0.24892 0.977889,0.10667 1.297925,0.10667 0.320037,0 0.355596,-0.0356 0.03556,-0.0533 0.03556,-0.28447 0,-0.24892 -0.480055,-1.95578 Q 28.109107,6.61805 27.80685,6.61805 Z" />
      <path
         id="path36"
         style="font-style:normal;font-variant:normal;font-weight:normal;font-stretch:normal;font-size:17.7798px;line-height:0;font-family:'Patrick Hand';-inkscape-font-specification:'Patrick Hand';fill:#f9f9f9;stroke-width:0.444495"
         d="M 37.194567,16.0236 Q 36.465595,13.87225 35.683284,12.09427 34.900973,10.29851 33.674167,7.59598 33.247451,6.65365 33.140773,6.44029 33.034094,6.20915 33.034094,5.94246 q 0,-0.28448 0.266697,-0.55118 0.284477,-0.26669 0.622293,-0.26669 0.337816,0 0.568953,0.33781 l 0.853431,1.95578 q 1.79576,4.14269 2.560291,6.02735 l 0.320037,-1.24458 q 0.391155,-1.63575 0.81787,-3.23593 1.209027,-4.37383 2.382494,-4.37383 0.213357,0 0.355596,0.12446 0.160018,0.12446 0.160018,0.33782 0,0.21335 -0.231138,0.62229 -0.213357,0.40894 -0.551173,1.47572 -0.337817,1.06679 -0.426716,1.26237 -0.07112,0.1778 -0.85343,2.98701 -0.764531,2.8092 -1.315705,4.40939 -0.0889,0.28447 -0.337816,0.48005 -0.248918,0.1778 -0.568954,0.1778 -0.302257,0 -0.462275,-0.4445 z" />
      <path
         id="path38"
         style="font-style:normal;font-variant:normal;font-weight:normal;font-stretch:normal;font-size:17.7798px;line-height:0;font-family:'Patrick Hand';-inkscape-font-specification:'Patrick Hand';fill:#f9f9f9;stroke-width:0.444495"
         d="m 42.919635,10.24517 q -0.248917,-0.16002 -0.248917,-0.46228 0,-0.30225 0.195578,-0.55117 -0.07112,-1.77798 -0.07112,-3.75154 0.106679,-0.42671 0.320037,-0.62229 0.231137,-0.19558 0.657852,-0.24892 2.346934,0.10668 5.085023,0.10668 0.675633,0.14224 0.675633,0.58673 0,0.74676 -1.457944,0.87121 -0.391156,0.0178 -0.85343,0.0178 H 46.06666 q -0.337817,0 -1.866879,-0.14223 0,2.22247 0.07112,3.05812 0.942329,0.0178 3.627079,0.0178 0.640073,0.12446 0.640073,0.58673 0,0.4445 -0.515614,0.69342 -0.05334,0.0356 -0.195578,0.0711 l -3.075906,-0.0533 q -0.284476,0 -0.462274,0.0356 l 0.07112,3.05812 q 0,1.03123 -0.05334,1.47573 l 4.124914,-0.0533 q 0.568954,0.0889 0.568954,0.48005 0,0.2667 -0.248918,0.53339 -0.231137,0.2667 -0.551173,0.33782 l -4.551629,0.0711 q -0.408936,0 -0.568954,-0.14224 -0.160018,-0.16002 -0.160018,-0.51561 0.07112,-0.49784 0.07112,-1.60019 v -1.24458 z" />
    </g>
    <path
       d="m 54.530493,4.0743656 q 0.444495,0 0.746752,0.39116 0.302256,0.39115 0.782311,1.61796 1.120127,2.89811 2.186915,9.0854804 0.01778,0.0711 0.01778,0.21335 0,0.12446 -0.177798,0.28448 -0.160018,0.14224 -0.480055,0.14224 -0.302256,0 -0.515614,-0.14224 -0.213357,-0.16002 -0.284477,-0.49783 -0.07112,-0.3556 -0.266697,-1.36905 -0.426715,-2.25803 -0.568953,-2.34693 -0.213358,-0.12446 -1.422384,-0.2667 -1.191247,-0.14224 -1.582403,-0.14224 -0.391155,0 -0.462274,0.0711 -0.320037,0.28448 -0.871211,4.32049 -0.07112,0.33782 -0.675632,0.33782 -0.604513,0 -0.604513,-0.51561 0,-1.28015 0.942329,-4.88945 0.94233,-3.6093004 1.564623,-4.7827704 0.782311,-1.51128 1.671301,-1.51128 z m -0.07112,1.97356 q -0.266697,0 -0.92455,1.5824 -0.657853,1.56462 -0.657853,1.938 0,0.0889 0.03556,0.12446 0.142238,0.14224 1.120128,0.24892 0.977889,0.1066704 1.297925,0.1066704 0.320036,0 0.355596,-0.0356 0.03556,-0.0533 0.03556,-0.2844704 0,-0.24892 -0.480055,-1.95578 -0.480055,-1.72464 -0.782311,-1.72464 z"
       style="font-style:normal;font-variant:normal;font-weight:normal;font-stretch:normal;font-size:17.7798px;line-height:0;font-family:'Patrick Hand';-inkscape-font-specification:'Patrick Hand';fill:#f9f9f9;stroke-width:0.444495"
       id="path40" />
    <path
       d="m 149.06113,40.634098 q 1.24458,0 2.11579,0.701634 1.70686,1.340908 1.70686,4.240994 0,2.884495 -1.88466,4.537235 -0.97788,0.82637 -2.25803,0.90433 -1.68908,0 -2.63141,-1.013475 -0.94233,-1.013465 -1.35127,-2.260821 -0.39115,-1.262939 -0.39115,-2.432334 0,-1.995756 1.08457,-3.289888 1.1379,-1.387675 3.6093,-1.387675 z m -0.12446,1.294132 q -2.3825,0 -2.96923,1.980164 -0.1778,0.530121 -0.1778,1.356491 0,0.82637 0.3556,1.917805 0.48005,1.465635 1.42238,2.058125 0.55118,0.374209 1.33349,0.374209 0.78231,0 1.4046,-0.608081 0.6223,-0.623682 0.85343,-1.57478 0.23114,-0.951107 0.23114,-1.917805 0,-1.715108 -0.56895,-2.650623 -0.55118,-0.935505 -1.88466,-0.935505 z"
       style="font-style:normal;font-variant:normal;font-weight:normal;font-stretch:normal;font-size:17.7798px;line-height:0;font-family:'Patrick Hand';-inkscape-font-specification:'Patrick Hand';fill:#f9f9f9;stroke-width:0.416248"
       id="path50" />
    <g
       transform="translate(2.1922973,0.86082271)"
       id="g285">
      <path
         id="path54"
         style="font-style:normal;font-variant:normal;font-weight:normal;font-stretch:normal;font-size:17.7798px;line-height:0;font-family:'Patrick Hand';-inkscape-font-specification:'Patrick Hand';fill:#f9f9f9;stroke-width:0.444495"
         d="m 120.33274,4.84011 1.97356,-0.0356 q 1.3157,0 1.3157,0.69341 0,0.24892 -0.0711,0.3556 -0.0711,0.0889 -0.10668,0.14224 -0.0356,0.0533 -0.14223,0.0889 -0.21336,0.0711 -0.3556,0.0889 -0.14224,0.0178 -0.19558,0.0178 -0.19558,0.0356 -0.65785,0.0533 -0.46228,0.0178 -1.35127,0.0178 -0.87121,0 -2.15135,-0.0711 v 3.27149 h 3.62708 q 0.19558,0 0.35559,0.1778 0.1778,0.17779 0.1778,0.39115 0,0.81787 -0.69341,0.81787 h -3.46706 l 0.0711,4.65831 q 0,0.90677 -0.6223,0.90677 -0.60451,0 -0.71119,-0.81787 -0.0533,-0.2667 -0.0711,-4.51607 0,-4.26715 -0.0356,-4.90723 -0.65785,0.0711 -0.65785,-0.74675 0,-0.21336 0.1778,-0.46227 0.1778,-0.2667 0.30226,-0.28448 0.14223,-0.0178 0.33781,-0.0178 0.21336,0 1.01345,0.0711 1.10235,0.10668 1.938,0.10668 z" />
      <path
         id="path56"
         style="font-style:normal;font-variant:normal;font-weight:normal;font-stretch:normal;font-size:17.7798px;line-height:0;font-family:'Patrick Hand';-inkscape-font-specification:'Patrick Hand';fill:#f9f9f9;stroke-width:0.444495"
         d="m 125.02657,5.05347 q 0.28448,-0.1778 0.64007,-0.1778 0.3556,0 0.4445,0.40893 0.0178,2.06246 0.0711,6.16959 0,2.50696 -0.14224,4.24938 -0.0356,0.26669 -0.33782,0.48005 -0.28447,0.19558 -0.58673,0.19558 -0.49784,0 -0.49784,-0.51561 0.1778,-1.77798 0.1778,-4.4094 l -0.10668,-5.97401 q 0.0711,-0.24892 0.33782,-0.42671 z" />
      <path
         id="path58"
         style="font-style:normal;font-variant:normal;font-weight:normal;font-stretch:normal;font-size:17.7798px;line-height:0;font-family:'Patrick Hand';-inkscape-font-specification:'Patrick Hand';fill:#f9f9f9;stroke-width:0.444495"
         d="m 127.92465,13.89003 0.0178,-1.38683 0.16002,-7.43195 q 0,-0.21336 0.23114,-0.33782 0.23114,-0.12446 0.58673,-0.12446 0.85343,0 0.85343,0.60451 0,0.19558 -0.21335,2.98701 -0.19558,2.79143 -0.19558,3.3426 0,0 0,1.88466 0,1.33349 0.1778,1.45795 0.26669,0.0889 0.62229,0.0889 l 2.56029,-0.1778 q 0.83565,0 0.83565,0.60451 0,0.48006 -0.46227,0.71119 -0.4445,0.21336 -0.88899,0.24892 -0.4445,0.0178 -1.08457,0.0178 -2.79143,0 -3.02257,-0.1778 -0.12446,-0.10668 -0.14224,-0.80009 -0.0178,-0.71119 -0.0356,-0.99567 0,-0.28448 0,-0.51561 z" />
      <path
         id="path60"
         style="font-style:normal;font-variant:normal;font-weight:normal;font-stretch:normal;font-size:17.7798px;line-height:0;font-family:'Patrick Hand';-inkscape-font-specification:'Patrick Hand';fill:#f9f9f9;stroke-width:0.444495"
         d="m 143.17972,4.52007 q 0.42672,0 0.55117,0.6223 0.0889,2.8981 0.0889,6.3296 0,3.41373 -0.0356,3.94712 -0.0356,0.53339 -0.23113,0.74675 -0.19558,0.21336 -0.7112,0.21336 -0.46227,0 -0.46227,-0.56895 v -4.01824 q 0,-0.97789 -0.0356,-2.00912 -0.0356,-1.03122 -0.0356,-1.29792 -0.60451,1.03123 -1.60018,1.70686 -0.99567,0.65785 -2.22248,0.65785 -1.2268,0 -2.06245,-1.01345 -0.0356,1.08457 -0.0356,2.57807 0,1.47573 0.0178,3.11147 0,0.44449 -0.30226,0.65785 -0.28448,0.19558 -0.65785,0.19558 -0.48006,0 -0.48006,-0.58673 0.0178,-1.60019 0.0178,-5.06725 V 5.67576 q 0,-0.30226 0.19558,-0.58673 0.21336,-0.28448 0.48005,-0.28448 0.28448,0 0.51562,0.16002 0.23114,0.14224 0.24892,0.44449 0.0711,1.97356 0.64007,2.93367 0.56895,0.96011 1.35126,0.96011 0.78231,0 1.33349,-0.24892 0.56895,-0.2667 0.92455,-0.60451 0.37337,-0.33782 0.71119,-0.96011 0.48006,-0.88899 0.92455,-2.18692 0.2667,-0.78231 0.87121,-0.78231 z" />
      <path
         id="path62"
         style="font-style:normal;font-variant:normal;font-weight:normal;font-stretch:normal;font-size:17.7798px;line-height:0;font-family:'Patrick Hand';-inkscape-font-specification:'Patrick Hand';fill:#f9f9f9;stroke-width:0.444495"
         d="m 149.36707,4.59119 q 1.15569,0 1.95578,0.39116 0.81787,0.39115 0.81787,0.99567 0,0.26669 -0.14224,0.46227 -0.12445,0.19558 -0.39115,0.19558 -0.24892,0 -1.10235,-0.39116 -0.85343,-0.40893 -1.56462,-0.40893 -0.69341,0 -1.44017,0.44449 -0.74675,0.4445 -0.74675,1.08457 0,0.87121 0.90677,1.28015 0.67564,0.30225 1.938,0.55117 1.26237,0.23114 2.06246,0.97789 0.80009,0.72897 0.80009,2.22247 0,2.27582 -1.36905,3.36039 -0.76453,0.60451 -2.16913,0.60451 -1.38683,0 -2.77365,-0.76453 -0.90677,-0.48006 -0.90677,-0.96011 0,-0.1778 0.14224,-0.39116 0.16002,-0.21335 0.42671,-0.35559 0.2667,-0.14224 0.48006,-0.0356 0.23114,0.0889 0.72897,0.33781 0.49783,0.24892 0.72897,0.33782 0.74675,0.28448 1.40461,0.28448 0.65785,0 1.26236,-0.64008 0.6223,-0.65785 0.6223,-1.60018 0,-1.24458 -1.24459,-1.74242 -0.60451,-0.24892 -1.36905,-0.37337 -1.5824,-0.28448 -2.38249,-0.94233 -0.80009,-0.67564 -0.80009,-2.0269 0,-1.35127 1.15569,-2.1158 1.15568,-0.78231 2.96922,-0.78231 z" />
    </g>
    <g
       transform="translate(-3.0994976,-24.584417)"
       id="g272">
      <path
         id="path42"
         style="font-style:normal;font-variant:normal;font-weight:normal;font-stretch:normal;font-size:17.7798px;line-height:0;font-family:'Patrick Hand';-inkscape-font-specification:'Patrick Hand';fill:#f9f9f9;stroke-width:0.416256"
         d="m 70.48905,40.282575 q -0.728998,-1.886612 -1.511335,-3.445799 -0.782338,-1.57478 -2.009193,-3.944746 -0.426723,-0.82637 -0.533412,-1.013474 -0.106669,-0.202697 -0.106669,-0.436569 0,-0.249473 0.266708,-0.483354 0.284483,-0.233872 0.622315,-0.233872 0.337831,0 0.568972,0.296241 l 0.853465,1.715108 q 1.795818,3.632904 2.560378,5.285644 l 0.320053,-1.091426 q 0.391166,-1.43446 0.817899,-2.837727 1.209066,-3.835601 2.382573,-3.835601 0.213366,0 0.35561,0.109144 0.160027,0.109145 0.160027,0.296249 0,0.187096 -0.231141,0.545713 -0.213371,0.358617 -0.551203,1.294123 -0.33782,0.935514 -0.426723,1.107027 -0.07108,0.155921 -0.853464,2.619438 -0.764556,2.46351 -1.315757,3.866786 -0.08886,0.249464 -0.337821,0.420976 -0.248928,0.155921 -0.568973,0.155921 -0.302273,0 -0.462298,-0.389802 z" />
      <path
         id="path44"
         style="font-style:normal;font-variant:normal;font-weight:normal;font-stretch:normal;font-size:17.7798px;line-height:0;font-family:'Patrick Hand';-inkscape-font-specification:'Patrick Hand';fill:#f9f9f9;stroke-width:0.416248"
         d="m 76.770375,30.730119 q 0.284477,-0.155921 0.640073,-0.155921 0.355596,0 0.444495,0.358609 0.01778,1.80866 0.07112,5.41038 0,2.198462 -0.142238,3.726466 -0.03556,0.233872 -0.337817,0.420977 -0.284476,0.171512 -0.586733,0.171512 -0.497834,0 -0.497834,-0.452161 0.177798,-1.559187 0.177798,-3.866794 L 76.43256,31.104319 q 0.07112,-0.218288 0.337815,-0.3742 z" />
      <path
         id="path46"
         style="font-style:normal;font-variant:normal;font-weight:normal;font-stretch:normal;font-size:17.7798px;line-height:0;font-family:'Patrick Hand';-inkscape-font-specification:'Patrick Hand';fill:#f9f9f9;stroke-width:0.416248"
         d="m 84.226078,30.867512 q 1.155687,0 1.955778,0.343025 0.817871,0.343017 0.817871,0.873146 0,0.233872 -0.142239,0.405385 -0.124458,0.171513 -0.391155,0.171513 -0.248917,0 -1.102348,-0.343026 -0.85343,-0.358608 -1.564622,-0.358608 -0.693412,0 -1.440164,0.389793 -0.746752,0.389801 -0.746752,0.951106 0,0.764002 0.90677,1.122619 0.675633,0.265056 1.937998,0.483345 1.262366,0.202697 2.062457,0.857554 0.800091,0.639265 0.800091,1.94898 0,1.995765 -1.369044,2.946872 -0.764532,0.530121 -2.169136,0.530121 -1.386824,0 -2.773649,-0.67045 -0.90677,-0.420985 -0.90677,-0.841962 0,-0.15592 0.142239,-0.343025 0.160018,-0.187096 0.426715,-0.311832 0.266697,-0.124737 0.480054,-0.03122 0.231138,0.07796 0.728972,0.29624 0.497835,0.218289 0.728972,0.296249 0.746752,0.249473 1.404604,0.249473 0.657853,0 1.262366,-0.561314 0.622293,-0.576897 0.622293,-1.403267 0,-1.091426 -1.244586,-1.528004 -0.604513,-0.218289 -1.369044,-0.327424 -1.582403,-0.249473 -2.382494,-0.82637 -0.800091,-0.592498 -0.800091,-1.777477 0,-1.184987 1.155687,-1.855436 1.155687,-0.686042 2.969227,-0.686042 z" />
      <path
         id="path48"
         style="font-style:normal;font-variant:normal;font-weight:normal;font-stretch:normal;font-size:17.7798px;line-height:0;font-family:'Patrick Hand';-inkscape-font-specification:'Patrick Hand';fill:#f9f9f9;stroke-width:0.416248"
         d="m 89.435691,30.206569 q 0.28447,-0.155921 0.64007,-0.155921 0.3556,0 0.44449,0.358609 0.0178,1.80866 0.0711,5.41038 0,2.198462 -0.14223,3.726466 -0.0356,0.233872 -0.33782,0.420976 -0.28448,0.171513 -0.58673,0.171513 -0.497838,0 -0.497838,-0.452161 0.177798,-1.559187 0.177798,-3.866794 l -0.106679,-5.238868 q 0.07112,-0.218288 0.337819,-0.3742 z" />
      <path
         id="path52"
         style="font-style:normal;font-variant:normal;font-weight:normal;font-stretch:normal;font-size:17.7798px;line-height:0;font-family:'Patrick Hand';-inkscape-font-specification:'Patrick Hand';fill:#f9f9f9;stroke-width:0.416248"
         d="m 113.85994,29.894728 q 0.1778,-0.09355 0.46228,-0.09355 0.28447,0 0.51561,0.218289 0.23114,0.202697 0.23114,0.483345 0,6.096422 0.0533,7.374962 0.0711,1.262938 0.0711,1.294123 0,0.343025 -0.21336,0.654857 -0.21336,0.296249 -0.48006,0.296249 -0.24891,0 -0.39115,-0.01561 -0.12446,-0.03122 -0.23114,-0.06235 -0.10668,-0.03122 -0.21336,-0.124737 l -0.17779,-0.15592 q -0.0711,-0.06235 -0.19558,-0.233872 -0.10668,-0.187105 -0.1778,-0.296249 -0.0711,-0.109145 -0.23114,-0.374201 -0.14224,-0.280657 -0.65785,-1.122619 -0.49783,-0.841962 -0.90677,-1.512411 -1.4046,-2.260822 -2.61363,-3.570536 0,5.067355 -0.32004,7.031936 -0.0533,0.374201 -0.65785,0.374201 -0.28448,0 -0.48005,-0.124737 -0.1778,-0.124736 -0.1778,-0.405384 0,-0.280657 0.12446,-3.087192 0.14224,-2.806543 0.14224,-3.492584 0,-0.701634 0,-0.888738 0,-1.122611 0.19557,-1.262939 0.19558,-0.140328 0.40894,-0.140328 0.97789,0 2.987,2.806534 0.39116,0.545722 1.49351,2.292014 1.10235,1.730691 1.3157,2.136085 l -0.21335,-6.470632 q 0,-1.340899 0.33781,-1.528003 z" />
      <path
         style="fill:#ffffff;stroke:none;stroke-width:0.0321308"
         d="m 95.911076,32.084117 v 0.03668 c 0.561722,-0.150995 1.139257,-0.396879 1.717028,-0.396879 1.942742,0 3.910756,0.866744 5.657726,1.911957 0.57355,0.343147 1.12477,0.781873 1.66073,1.214549 0.20388,0.164605 0.47052,0.502984 0.70359,0.57157 0.12988,0.03825 0.2335,-0.188115 0.30904,-0.293707 0.25167,-0.351803 0.69102,-0.743035 0.84514,-1.173656 -2.82591,-1.719179 -5.78606,-3.817069 -9.035487,-2.881894 -0.678334,0.195223 -1.24766,0.5945 -1.857767,1.011382 M 90,37.035475 c 0.51124,-0.287032 0.987452,-0.754807 1.463695,-1.129496 0.866164,-0.681526 1.766934,-1.336499 2.730352,-1.754943 2.442567,-1.060912 4.898358,-0.26444 7.205873,0.947945 0.63576,0.334015 1.24273,0.937677 1.88591,1.20296 -0.21344,0.36343 -0.57047,0.638651 -0.84443,0.924252 -0.67234,0.700856 -1.44511,1.344752 -2.25184,1.75091 -0.627468,0.315895 -1.296462,0.46209 -1.942214,0.699095 v 0.03668 c 2.564964,0 5.143624,-1.323551 7.036994,-3.594316 -0.22757,-0.417489 -0.62407,-0.699129 -0.95703,-0.953995 -0.6653,-0.509183 -1.35181,-0.954878 -2.0548,-1.367858 C 101.05367,33.08078 99.619397,32.427384 98.2755,32.30747 96.109201,32.114169 93.920985,33.152666 92.139245,34.700386 91.412781,35.331445 90.508353,36.095165 90,37.035482 m 6.839949,-2.951962 c -1.270851,0.106693 -0.7764,2.135465 0.309631,2.031744 0.574895,-0.05491 0.818971,-0.882772 0.547984,-1.500445 -0.176825,-0.403039 -0.51646,-0.559942 -0.857615,-0.531299 m -2.842938,0.824713 c 0.70055,3.216731 4.200973,3.212806 6.164399,2.299336 0.58872,-0.273902 1.37001,-0.615581 1.74518,-1.309065 -0.31475,-0.182651 -0.6375,-0.359358 -0.95704,-0.527998 -0.10192,-0.05376 -0.27668,-0.181073 -0.38888,-0.139952 -0.18812,0.06892 -0.42051,0.585103 -0.596295,0.750662 -0.471363,0.443972 -1.067311,0.763647 -1.632577,0.935622 -1.147704,0.349126 -2.497087,0.155106 -3.462201,-0.779122 -0.360966,-0.349456 -0.561495,-0.836744 -0.872586,-1.229477 z"
         id="path233" />
    </g>
  </g>
</svg>
